<svg id="ppt_" data-name="ppt " xmlns="http://www.w3.org/2000/svg" width="85.5" height="100.5" viewBox="0 0 85.5 100.5">
  <defs>
    <style>
      .cls-1 {
        fill: none;
      }

      .cls-1, .cls-4 {
        stroke: #f7baa7;
        stroke-linejoin: round;
        stroke-width: 1px;
      }

      .cls-2 {
        fill: #f0754f;
      }

      .cls-3 {
        fill: #f7baa7;
      }

      .cls-3, .cls-5 {
        fill-rule: evenodd;
      }

      .cls-4 {
        fill: #ffeaea;
      }

      .cls-5 {
        fill: #fff;
      }
    </style>
  </defs>
  <rect id="圆角矩形_92_拷贝_2" data-name="圆角矩形 92 拷贝 2" class="cls-1" x="0.5" y="0.5" width="80" height="95" rx="4" ry="4"/>
  <rect id="圆角矩形_89_拷贝_3" data-name="圆角矩形 89 拷贝 3" class="cls-2" x="55.5" y="70.5" width="30" height="30" rx="4" ry="4"/>
  <path id="形状_7_拷贝_13" data-name="形状 7 拷贝 13" class="cls-3" d="M42,110v-1H72v1H42Z" transform="translate(-1.5 -91.5)"/>
  <path id="形状_7_拷贝_12" data-name="形状 7 拷贝 12" class="cls-3" d="M42,118v-1H72v1H42Z" transform="translate(-1.5 -91.5)"/>
  <path id="形状_7_拷贝_11" data-name="形状 7 拷贝 11" class="cls-3" d="M42,126v-1H72v1H42Z" transform="translate(-1.5 -91.5)"/>
  <path id="形状_7_拷贝_10" data-name="形状 7 拷贝 10" class="cls-3" d="M12,140v-1H72v1H12Z" transform="translate(-1.5 -91.5)"/>
  <path id="形状_7_拷贝_9" data-name="形状 7 拷贝 9" class="cls-3" d="M12,148v-1H72v1H12Z" transform="translate(-1.5 -91.5)"/>
  <path id="形状_7_拷贝_8" data-name="形状 7 拷贝 8" class="cls-3" d="M12,163v-1H41v1H12Z" transform="translate(-1.5 -91.5)"/>
  <path id="形状_7_拷贝_7" data-name="形状 7 拷贝 7" class="cls-3" d="M12,171v-1H41v1H12Z" transform="translate(-1.5 -91.5)"/>
  <rect id="矩形_96" data-name="矩形 96" class="cls-4" x="10.5" y="17.5" width="24" height="17"/>
  <path id="P" class="cls-5" d="M66.428,168.869V185.8h1.448v-7.187h5.411c3.773,0,5.672-1.636,5.672-4.886s-1.9-4.862-5.648-4.862H66.428Zm1.448,1.281h5.34a4.877,4.877,0,0,1,3.251.925,3.309,3.309,0,0,1,1.02,2.656,3.45,3.45,0,0,1-1.02,2.7,4.97,4.97,0,0,1-3.251.9h-5.34V170.15Z" transform="translate(-1.5 -91.5)"/>
</svg>
